<?xml version="1.0" encoding="iso-8859-1"?>
<!-- Generator: Adobe Illustrator 19.0.0, SVG Export Plug-In . SVG Version: 6.00 Build 0)  -->
<svg xmlns="http://www.w3.org/2000/svg" xmlns:xlink="http://www.w3.org/1999/xlink" version="1.1" id="Capa_1" x="0px" y="0px" viewBox="0 0 512 512" style="enable-background:new 0 0 512 512;" xml:space="preserve" width="512px" height="512px">
<g>
	<g>
		<path d="M449.276,337.815H345.501c8.835-7.192,16.721-15.449,22.959-24.835c20.545-30.918,23.044-68.898,7.043-106.949    c-31.164-74.11-83.282-166.331-93.61-184.415L269.898,0.772L257.941,21.46l-0.026,0.039    c-0.604,1.039-60.076,104.586-93.694,184.532c-16.001,38.051-13.502,76.038,7.043,106.956    c6.232,9.386,14.118,17.637,22.953,24.829H62.744C26.945,337.815,0,381.455,0,409.757v101.471h512V409.757    C512,381.455,485.068,337.815,449.276,337.815z M189.666,216.728c23.862-56.753,61.219-125.975,80.205-160.203    c19.603,35.286,56.285,103.346,80.186,160.203c15.767,37.493,6.206,64.73-4.583,80.984c-5.693,8.562-13.119,15.981-21.557,22.109    c8.25-15.378,8.783-33.397,1.22-51.384c-13.846-32.865-36.448-73.253-43.218-85.171l-12.022-20.876l-11.957,20.681l-0.026,0.052    v-0.007c-1.123,1.954-27.743,48.295-43.329,85.327c-7.562,17.987-7.03,36.013,1.227,51.391    c-8.445-6.128-15.871-13.547-21.57-22.109C183.454,281.465,173.899,254.221,189.666,216.728z M298.258,309.182    c-5.965,8.984-17.383,15.021-28.406,15.021c-11.016,0-22.414-6.037-28.393-15.027c-5.634-8.484-6.134-18.87-1.435-30.035    c8.49-20.175,20.778-43.894,29.834-60.66c9.153,16.968,21.402,40.615,29.834,60.66    C304.398,290.306,303.899,300.698,298.258,309.182z M117.108,483.633H27.601v-73.876c0-15.507,18.065-44.341,35.143-44.341h53.76    C128.474,381.209,161.956,434.19,117.108,483.633z M484.406,430.776h-80.802v27.601h80.802v25.244H151.645    c12.395-20.127,16.471-40.721,15.543-60.07h102.691V395.95H162.514c-3.226-11.178-7.809-21.499-12.93-30.548h299.699    c17.072,0,35.124,28.84,35.124,44.341V430.776z" fill="#FFFFFF"/>
	</g>
</g>
<g>
	<g>
		<rect x="147.75" y="11.99" transform="matrix(0.7345 -0.6787 0.6787 0.7345 6.4078 123.9162)" width="27.602" height="83.56" fill="#FFFFFF"/>
	</g>
</g>
<g>
	<g>
		<rect x="53.681" y="222.232" transform="matrix(0.9602 -0.2793 0.2793 0.9602 -62.1728 35.7193)" width="81.153" height="27.6" fill="#FFFFFF"/>
	</g>
</g>
<g>
	<g>
		<rect x="94.794" y="77.915" transform="matrix(0.5001 -0.866 0.866 0.5001 -56.7152 158.1173)" width="27.595" height="100.532" fill="#FFFFFF"/>
	</g>
</g>
<g>
	<g>
		<rect x="335.38" y="39.948" transform="matrix(0.6788 -0.7343 0.7343 0.6788 81.6749 294.2183)" width="83.566" height="27.594" fill="#FFFFFF"/>
	</g>
</g>
<g>
	<g>
		<rect x="430.756" y="195.414" transform="matrix(0.2793 -0.9602 0.9602 0.2793 93.7933 596.9427)" width="27.6" height="81.153" fill="#FFFFFF"/>
	</g>
</g>
<g>
	<g>
		
			<rect x="379.916" y="114.361" transform="matrix(0.8659 -0.5002 0.5002 0.8659 -6.4232 232.3546)" width="100.496" height="27.594" fill="#FFFFFF"/>
	</g>
</g>
<g>
</g>
<g>
</g>
<g>
</g>
<g>
</g>
<g>
</g>
<g>
</g>
<g>
</g>
<g>
</g>
<g>
</g>
<g>
</g>
<g>
</g>
<g>
</g>
<g>
</g>
<g>
</g>
<g>
</g>
</svg>
