<?xml version="1.0" encoding="iso-8859-1"?>
<!-- Generator: Adobe Illustrator 16.0.0, SVG Export Plug-In . SVG Version: 6.00 Build 0)  -->
<!DOCTYPE svg PUBLIC "-//W3C//DTD SVG 1.1//EN" "http://www.w3.org/Graphics/SVG/1.1/DTD/svg11.dtd">
<svg version="1.1" id="Capa_1" xmlns="http://www.w3.org/2000/svg" xmlns:xlink="http://www.w3.org/1999/xlink" x="0px" y="0px"
	 width="188.857px" height="188.856px" viewBox="0 0 188.857 188.856" style="enable-background:new 0 0 188.857 188.856;"
	 xml:space="preserve">
<g>
	<path d="M178.918,121.835c3.973-8.174,3.09-17.695-2.515-24.841c-9.37-11.944-26.293,0.652-34.086,10.543
		c1.021-6.671,1.638-13.443,3.051-19.918c1.399-4.676,2.904-9.134,4.695-13.134c1.144-2.085,2.484-4.1,4.122-6.013
		c1.037-1.211,0.837-2.602,0.11-3.584c-0.07-0.358-0.2-0.7-0.36-1.028c-0.057-0.776-0.455-1.53-1.395-2.047
		c-11.345-6.248-21.656-3.341-29.732,3.672c-2.088,1.143-4.025,2.548-5.813,4.171c-0.195-9.114-2.418-18.076-2.794-27.238
		c-0.568-13.852,8.273-25.961,16.722-35.886c1.98-2.326,0.903-6.753-2.702-6.523C97.51,1.965,45.796,43.701,59.124,78.242
		c-4.722-3.045-9.787-5.435-15.594-6.944c-2.321-0.604-4.614,1.129-4.639,3.534c-0.019,1.851,0.044,3.705,0.15,5.557
		c-0.978,6.869-0.397,13.909,1.442,20.729c-11.746-6.359-29.809-3.045-32.709,11.436c-2.532,12.646,12.415,27.905,25.207,29.114
		c-2.469,1.761-4.863,3.617-7.023,5.611c-8.085,5.765-13.234,13.113-11.15,21.69c0.5,4.14,2.831,8.186,7.595,11.909
		c0.052,0.039,0.103,0.081,0.155,0.118c0.447,0.346,0.861,0.694,1.35,1.033c12.18,8.435,25.77,0.323,36.029-7.374
		c6.282-4.713,11.989-10.149,17.706-15.517c-1.199,12.479,1.457,27.368,15.669,29.507c6.566,0.989,12.287-1.546,15.527-7.02
		c4.659-4.329,7.729-10.47,7.034-16.266c18.093,10.291,38.817,19.43,51.863,11.106c0.321-0.125,0.647-0.223,0.966-0.36
		c9.841-4.268,12.778-12.385,6.603-21.446c-2.934-4.305-6.904-7.261-11.437-9.389c1.557-2.488,2.908-5.233,4.535-7.477
		C172.169,132.605,176.102,127.633,178.918,121.835z M61.928,87.395c2.229,2.192,3.998,4.08,4.796,5.009
		c1.27,1.477,4.209,0.354,3.992-1.653c-3.573-32.999,12.532-69.831,45.851-77.764c-1.118,1.729-2.16,3.498-3.128,5.309
		c-4.528,5.978-7.439,12.715-8.227,21.24c-1.396,15.118,4.191,30.515,4.168,45.701c-0.003,1.998,2.742,2.748,3.746,1.014
		c0.446-0.77,0.906-1.542,1.376-2.312c0.888-0.189,1.727-0.746,2.331-1.79c5.897-10.181,16.584-14.313,27.643-13.603
		c-1.279,2.423-2.354,4.954-3.351,7.526c-0.183-0.011-0.358-0.035-0.557-0.024c-12.519,0.709-21.784,9.372-28.481,19.406
		c-11.085-14.873-17.002-32.331-18.187-51.025c-0.156-2.465-3.009-3.067-4.402-1.192c-0.21,0.283-0.389,0.575-0.593,0.859
		c-1.486-1.482-4.092-1.765-5.259,0.486c-9.997,19.282-7.677,40.449-6.654,61.393c-8.088-2.559-15.53-6.156-22.857-10.656
		c-1.654-1.016-3.414,0.34-3.573,2.051c-0.186,2.005-0.237,3.975-0.209,5.919c-2.75-7.432-4.169-15.369-4.258-23.156
		C51.487,82.317,56.708,84.831,61.928,87.395z M57.338,106.243c7.714,2.713,14.58,6.165,23.034,6.533
		c1.766,0.077,3.198-1.521,3.216-3.216c0.151-14.324-1.793-29.027,0.216-43.105c0.786-2.98,1.757-5.915,2.975-8.784
		c5.257,17.028,9.653,34.572,22.626,47.552c1.446,1.446,3.504,1.312,4.935,0.158c1.137,0.103,2.314-0.743,2.767-1.836
		c0.916-2.207,1.982-4.226,3.171-6.1c4.705-5.967,10.481-11.416,17.889-12.74c-5.048,17.004-7.536,35.312-20.092,48.022
		c-13.903,14.075-38.15,5.775-51.022-5.034c-3.376-2.835-6.327-6.11-8.896-9.673c-0.032-0.063-0.055-0.128-0.086-0.191
		c-0.003-0.079,0.02-0.146,0.007-0.229C57.442,113.819,57.198,110.034,57.338,106.243z M16.456,115.504
		c-0.952-4.706,2.214-8.341,6.462-9.706c7.107-2.286,13.714,1.682,20.368,3.447c3.275,7.655,8.104,14.77,14.005,20.739
		c-4.533,0.994-10.069,3.189-15.65,6.223C31.332,131.71,18.992,128.048,16.456,115.504z M34.601,177.49
		c-2.698-0.149-5.321-1.078-7.702-3.162c-4.281-3.748-4.691-8.121-3.283-12.297c0.538,0.01,1.065,0.061,1.621,0.178
		c1.672,0.354,3.35,0.977,4.899,1.688c3.437,1.582,6.429,5.384,7.332,9.288c-0.23,0.941-0.392,1.874-0.121,2.835
		c0.061,0.216,0.202,0.387,0.358,0.54l0,0c-0.002,0.018,0.008,0.036,0.006,0.054C36.698,176.945,35.652,177.224,34.601,177.49z
		 M81.527,145.532c-3.642,2.155-7.15,5.708-9.401,7.772c-0.314,0.288-0.628,0.576-0.941,0.863
		c-8.568,7.015-16.717,14.663-26.552,19.574c-0.455-3.551-2.219-6.799-4.672-9.449c-1.005-1.652-2.308-3.124-3.868-4.363
		c-2.845-2.262-6.51-3.455-9.832-3.075c0.948-1.403,2.016-2.737,3.122-3.954c0.533-0.586,1.128-1.118,1.695-1.675
		c0.939-0.564,1.859-1.087,2.713-1.558c10.01-5.51,21.441-8.495,32.261-12.229c4.834,3.386,10.116,5.99,15.657,7.676
		C81.624,145.229,81.563,145.37,81.527,145.532z M104.916,170.879c-1.147,6.529-3.507,11.804-11.165,10.636
		c-2.346-0.358-4.187-1.46-5.68-3.018c0.108-0.164,0.192-0.356,0.2-0.617c0.043-1.321,0.304-2.498,0.73-3.555
		c3.527-4.133,8.402-6.09,13.926-6.712c0.773,0.102,1.541,0.229,2.307,0.383C105.151,169.021,105.068,170.01,104.916,170.879z
		 M106.612,161.311c-8.265-0.664-18.822,3.652-21.926,11.567c-0.245-0.626-0.484-1.259-0.693-1.918
		c-1.279-5.259-1.015-11.514-0.602-17.058c1.659-1.596,3.242-3.306,4.363-5.03c4.938,2.446,11.756,6.761,19.5,11.426
		C107.005,160.607,106.797,160.95,106.612,161.311z M153.012,172.611c-11.172-1.071-24.608-8.802-31.531-12.256
		c-5.188-2.588-10.346-5.432-15.593-8.078c-3.168-1.96-6.627-3.967-9.984-4.987c8.845,0.136,18.306-1.62,26.234-5.879
		c6.452,2.48,22.002,5.691,33.44,10.316C149.077,156.9,148.736,165.918,153.012,172.611z M166,168.948
		c-1.893,1.894-4.222,2.965-6.812,3.461c-1.249-2.192-2.085-4.59-2.272-6.951c0.146-1.006,0.354-2.019,0.72-3.058
		c1.111-3.149,3.164-5.089,5.474-6.972C169,159.114,171.404,163.544,166,168.948z M151.121,141.327
		c-3.155-0.61-6.373-1.039-9.571-1.425c-4.731-1.181-9.172-2.168-12.751-3.04c2.365-2.021,4.484-4.344,6.215-7.054
		c1.882-2.942,3.243-6.048,4.323-9.239c3.842-6.028,9.442-13.138,15.778-17.267c2.26-1.367,4.595-2.465,6.833-3.053
		c1.848-0.425,3.724-0.498,5.608-0.17c2.401,0.65,4.403,2.432,5.647,5.855c2.957,8.145-2.036,15.481-6.687,21.829
		C161.857,132.814,156.266,136.787,151.121,141.327z"/>
</g>
<g>
</g>
<g>
</g>
<g>
</g>
<g>
</g>
<g>
</g>
<g>
</g>
<g>
</g>
<g>
</g>
<g>
</g>
<g>
</g>
<g>
</g>
<g>
</g>
<g>
</g>
<g>
</g>
<g>
</g>
</svg>
