<?xml version="1.0" encoding="iso-8859-1"?>
<!-- Generator: Adobe Illustrator 16.0.0, SVG Export Plug-In . SVG Version: 6.00 Build 0)  -->
<!DOCTYPE svg PUBLIC "-//W3C//DTD SVG 1.1//EN" "http://www.w3.org/Graphics/SVG/1.1/DTD/svg11.dtd">
<svg version="1.1" id="Capa_1" xmlns="http://www.w3.org/2000/svg" xmlns:xlink="http://www.w3.org/1999/xlink" x="0px" y="0px"
	 width="612px" height="612px" viewBox="0 0 612 612" style="enable-background:new 0 0 612 612;" xml:space="preserve">
<g>
	<g>
		<g>
			<path d="M338.273,110.701c0.828,0,1.502,0.058,1.887,0.077c81.181,0.943,147.923,61.352,158.857,139.741
				C562.448,256.949,612,310.389,612,375.515c0,66.511-51.631,120.798-117.045,125.283v0.501H96.446v-0.385
				C42.563,497.256,0,452.575,0,397.749c0-55.211,43.276-100.219,97.794-103.184c15.381-36.538,47.453-64.201,86.667-73.538
				C206.194,156.865,266.776,110.701,338.273,110.701L338.273,110.701z M338.273,117.381c-66.78,0-126.073,42.486-147.499,105.764
				l-1.155,3.465l-3.581,0.866c-36.73,8.759-67.416,34.806-82.124,69.688l-1.617,3.831l-4.12,0.212
				c-51.322,2.772-91.479,45.22-91.479,96.542c0,50.688,39.637,93.058,90.19,96.504l5.332,0.385h386.035v-0.077l6.237-0.423
				c62.161-4.255,110.808-56.348,110.808-118.623c0-61.313-45.951-112.174-106.938-118.334l-5.218-0.558l-0.712-5.179
				c-10.53-75.521-76.021-133.119-152.351-134.023h-0.75C339.063,117.4,338.697,117.381,338.273,117.381L338.273,117.381z"/>
		</g>
	</g>
</g>
<g>
</g>
<g>
</g>
<g>
</g>
<g>
</g>
<g>
</g>
<g>
</g>
<g>
</g>
<g>
</g>
<g>
</g>
<g>
</g>
<g>
</g>
<g>
</g>
<g>
</g>
<g>
</g>
<g>
</g>
</svg>
