<?xml version="1.0" encoding="iso-8859-1"?>
<!-- Generator: Adobe Illustrator 19.0.0, SVG Export Plug-In . SVG Version: 6.00 Build 0)  -->
<svg version="1.1" id="Capa_1" xmlns="http://www.w3.org/2000/svg" xmlns:xlink="http://www.w3.org/1999/xlink" x="0px" y="0px"
	 viewBox="0 0 324.4 324.4" style="enable-background:new 0 0 324.4 324.4;" xml:space="preserve">
<g>
	<g>
		<path d="M294,96.977h-65.2c-2.4-12.8-13.6-22.4-26.8-22.4h-28l60.8-64.4c2-2,2-5.2-0.4-7.2c-2-2-5.2-2-7.2,0.4l-64.8,68.8
			l-65.2-69.2c-2-2-5.2-2-7.2-0.4c-2,2-2,5.2-0.4,7.2l60.8,64.8h-27.6c-13.2,0-24.4,9.6-26.8,22.4H30.8c-16.8,0-30.8,13.6-30.8,30.8
			v164.4c0,16.8,13.6,30.8,30.8,30.8h262.8c16.8,0,30.8-13.6,30.8-30.8v-164.4C324.4,110.577,310.8,96.977,294,96.977z
			 M122.8,84.977H202c7.6,0,14,5.2,16.4,12h-112C108.8,90.177,115.2,84.977,122.8,84.977z M294,312.577H30.8
			c-11.2,0-20.4-9.2-20.4-20.4v-164.4c0-11.2,9.2-20.4,20.4-20.4h262.8c11.2,0,20.4,9.2,20.4,20.4v164.4h0.4
			C314.4,303.377,305.2,312.577,294,312.577z"/>
	</g>
</g>
<g>
	<g>
		<path d="M263.6,122.977H61.2c-16.8,0-30.8,13.6-30.8,30.8v94.8c0,16.8,13.6,30.8,30.8,30.8h202.4c16.8,0,30.8-13.6,30.8-30.8
			v-94.8C294.4,136.977,280.4,122.977,263.6,122.977z M284,248.577c0,11.2-9.2,20.4-20.4,20.4H61.2c-11.2,0-20.4-9.2-20.4-20.4
			v-94.8c0-11.2,9.2-20.4,20.4-20.4h202.4c11.2,0,20.4,9.2,20.4,20.4V248.577z"/>
	</g>
</g>
<g>
	<g>
		<path d="M196.4,290.977H57.6c-2.8,0-5.2,2.4-5.2,5.2c0,2.8,2.4,5.2,5.2,5.2h138.8c2.8,0,5.2-2.4,5.2-5.2
			S199.2,290.977,196.4,290.977z"/>
	</g>
</g>
<g>
	<g>
		<path d="M268,290.977h-44c-2.8,0-5.2,2.4-5.2,5.2c0,2.8,2.4,5.2,5.2,5.2h44.4c2.8,0,5.2-2.4,5.2-5.2
			C273.2,293.377,271.2,290.977,268,290.977z"/>
	</g>
</g>
<g>
</g>
<g>
</g>
<g>
</g>
<g>
</g>
<g>
</g>
<g>
</g>
<g>
</g>
<g>
</g>
<g>
</g>
<g>
</g>
<g>
</g>
<g>
</g>
<g>
</g>
<g>
</g>
<g>
</g>
</svg>
